REM DIRINDEX 1\2\3,1\2\4,1\2\5,1\2\6
REM DIRNAME cjc157,folder01,folder02,folder03,folder04,folder05
TITLE ""
FILE "190 190.mp3" MP3
  TRACK 01 AUDIO
    TITLE "0:"
    INDEX 01 00:00:00
  TRACK 02 AUDIO
    TITLE "3:cjc157_6854"
    INDEX 01 00:00:09
  TRACK 03 AUDIO
    TITLE "0:"
    INDEX 01 00:01:40
  TRACK 04 AUDIO
    TITLE "4:cjc157_6855"
    INDEX 01 00:02:14
  TRACK 05 AUDIO
    TITLE "0:"
    INDEX 01 00:05:48
  TRACK 06 AUDIO
    TITLE "5:cjc157_6856"
    INDEX 01 00:06:16
  TRACK 07 AUDIO
    TITLE "0:"
    INDEX 01 00:10:18
  TRACK 08 AUDIO
    TITLE "5:cjc157_6857"
    INDEX 01 00:10:57
  TRACK 09 AUDIO
    TITLE "0:"
    INDEX 01 00:13:26
  TRACK 10 AUDIO
    TITLE "3:cjc157_6858"
    INDEX 01 00:14:02
  TRACK 11 AUDIO
    TITLE "0:"
    INDEX 01 00:16:20
  TRACK 12 AUDIO
    TITLE "4:cjc157_6859"
    INDEX 01 00:16:65
  TRACK 13 AUDIO
    TITLE "0:"
    INDEX 01 00:18:31
  TRACK 14 AUDIO
    TITLE "5:cjc157_6860"
    INDEX 01 00:19:01
  TRACK 15 AUDIO
    TITLE "0:"
    INDEX 01 00:22:42
  TRACK 16 AUDIO
    TITLE "3:cjc157_6861"
    INDEX 01 00:23:20
  TRACK 17 AUDIO
    TITLE "0:"
    INDEX 01 00:25:31
  TRACK 18 AUDIO
    TITLE "4:cjc157_6862"
    INDEX 01 00:26:03
  TRACK 19 AUDIO
    TITLE "0:"
    INDEX 01 00:27:51
  TRACK 20 AUDIO
    TITLE "5:cjc157_6863"
    INDEX 01 00:28:23
  TRACK 21 AUDIO
    TITLE "0:"
    INDEX 01 00:32:52
  TRACK 22 AUDIO
    TITLE "3:cjc157_6864"
    INDEX 01 00:33:22
  TRACK 23 AUDIO
    TITLE "0:"
    INDEX 01 00:35:15
  TRACK 24 AUDIO
    TITLE "4:cjc157_6865"
    INDEX 01 00:35:63
  TRACK 25 AUDIO
    TITLE "0:"
    INDEX 01 00:37:59
  TRACK 26 AUDIO
    TITLE "5:cjc157_6866"
    INDEX 01 00:38:33
  TRACK 27 AUDIO
    TITLE "0:"
    INDEX 01 00:41:18
  TRACK 28 AUDIO
    TITLE "3:cjc157_6867"
    INDEX 01 00:41:65
  TRACK 29 AUDIO
    TITLE "0:"
    INDEX 01 00:43:46
  TRACK 30 AUDIO
    TITLE "4:cjc157_6868"
    INDEX 01 00:44:16
  TRACK 31 AUDIO
    TITLE "0:"
    INDEX 01 00:45:49
  TRACK 32 AUDIO
    TITLE "5:cjc157_6869"
    INDEX 01 00:46:21
  TRACK 33 AUDIO
    TITLE "0:"
    INDEX 01 00:51:15
  TRACK 34 AUDIO
    TITLE "5:cjc157_6870"
    INDEX 01 00:51:60
  TRACK 35 AUDIO
    TITLE "0:"
    INDEX 01 00:54:54
  TRACK 36 AUDIO
    TITLE "3:cjc157_6871"
    INDEX 01 00:55:28
  TRACK 37 AUDIO
    TITLE "0:"
    INDEX 01 00:57:15
  TRACK 38 AUDIO
    TITLE "4:cjc157_6872"
    INDEX 01 00:57:58
  TRACK 39 AUDIO
    TITLE "0:"
    INDEX 01 01:00:06
  TRACK 40 AUDIO
    TITLE "5:cjc157_6873"
    INDEX 01 01:00:51
  TRACK 41 AUDIO
    TITLE "0:"
    INDEX 01 01:04:00
  TRACK 42 AUDIO
    TITLE "5:cjc157_6874"
    INDEX 01 01:04:47
  TRACK 43 AUDIO
    TITLE "0:"
    INDEX 01 01:08:15
  TRACK 44 AUDIO
    TITLE "3:cjc157_6875"
    INDEX 01 01:08:58
  TRACK 45 AUDIO
    TITLE "0:"
    INDEX 01 01:11:13
  TRACK 46 AUDIO
    TITLE "4:cjc157_6876"
    INDEX 01 01:11:60
  TRACK 47 AUDIO
    TITLE "0:"
    INDEX 01 01:13:32
  TRACK 48 AUDIO
    TITLE "5:cjc157_6877"
    INDEX 01 01:14:02
  TRACK 49 AUDIO
    TITLE "0:"
    INDEX 01 01:17:00
  TRACK 50 AUDIO
    TITLE "3:cjc157_6878"
    INDEX 01 01:17:45
  TRACK 51 AUDIO
    TITLE "0:"
    INDEX 01 01:19:13
  TRACK 52 AUDIO
    TITLE "4:cjc157_6879"
    INDEX 01 01:19:52
  TRACK 53 AUDIO
    TITLE "0:"
    INDEX 01 01:21:23
  TRACK 54 AUDIO
    TITLE "5:cjc157_6880"
    INDEX 01 01:21:69
  TRACK 55 AUDIO
    TITLE "0:"
    INDEX 01 01:24:49
  TRACK 56 AUDIO
    TITLE "3:cjc157_6881"
    INDEX 01 01:25:17
  TRACK 57 AUDIO
    TITLE "0:"
    INDEX 01 01:26:50
  TRACK 58 AUDIO
    TITLE "4:cjc157_6882"
    INDEX 01 01:27:24
  TRACK 59 AUDIO
    TITLE "0:"
    INDEX 01 01:28:74
  TRACK 60 AUDIO
    TITLE "5:cjc157_6883"
    INDEX 01 01:29:45
  TRACK 61 AUDIO
    TITLE "0:"
    INDEX 01 01:32:59
  TRACK 62 AUDIO
    TITLE "5:cjc157_6884"
    INDEX 01 01:33:29
  TRACK 63 AUDIO
    TITLE "0:"
    INDEX 01 01:37:21
  TRACK 64 AUDIO
    TITLE "3:cjc157_6885"
    INDEX 01 01:37:68
  TRACK 65 AUDIO
    TITLE "0:"
    INDEX 01 01:39:25
  TRACK 66 AUDIO
    TITLE "4:cjc157_6886"
    INDEX 01 01:39:72
  TRACK 67 AUDIO
    TITLE "0:"
    INDEX 01 01:41:26
  TRACK 68 AUDIO
    TITLE "5:cjc157_6887"
    INDEX 01 01:42:02
  TRACK 69 AUDIO
    TITLE "0:"
    INDEX 01 01:45:38
  TRACK 70 AUDIO
    TITLE "5:cjc157_6888"
    INDEX 01 01:46:08
  TRACK 71 AUDIO
    TITLE "0:"
    INDEX 01 01:50:15
